<?xml version="1.0" encoding="iso-8859-1"?>
<!-- Generator: Adobe Illustrator 19.0.0, SVG Export Plug-In . SVG Version: 6.00 Build 0)  -->
<!-- License: CC0. Made by SVG Repo: https://www.svgrepo.com/svg/278554/paste -->
<svg width="207" height="38" viewBox="0 0 207 38" fill="none" xmlns="http://www.w3.org/2000/svg">
<path d="M51.1128 22.9533C52.996 14.6928 58.8633 9.4646 66.3215 9.4646C73.7321 9.4714 77.1655 14.6996 75.289 22.9601C73.3922 31.2681 67.5725 36.5031 60.1619 36.4963C52.7037 36.5031 49.2227 31.2681 51.1128 22.9533ZM68.0348 23.0144C69.0682 18.6157 67.96 15.7806 65.1929 15.7466C62.3307 15.7126 59.9035 18.5069 58.8701 22.9125C57.8231 27.3656 58.9449 30.1463 61.8072 30.1803C64.5674 30.2075 66.9878 27.4676 68.0348 23.0144Z" fill="white"/>
<path d="M206.226 24.9182C208.592 14.6521 205.444 9.6211 198.047 9.6211C190.459 9.6143 184.98 14.9037 183.144 22.8582C181.145 31.5334 184.98 36.6664 192.472 36.6664C196.585 36.6664 200.549 34.9531 203.343 32.7775C203.384 32.7436 204.682 27.4405 204.682 27.4405H198.196L197.516 30.6088C196.272 31.2274 195.477 31.377 194.498 31.377C191.275 31.377 190.051 28.6643 190.398 24.9182H206.226ZM196.864 14.7473C199.237 14.7473 200.1 16.753 199.638 20.3971L191.391 20.3903C192.608 16.753 194.545 14.7473 196.864 14.7473Z" fill="white"/>
<path fill-rule="evenodd" clip-rule="evenodd" d="M120.881 9.75024C117.332 9.75024 113.681 10.8448 110.289 12.8369L108.997 18.5954H115.381L116.027 15.6651C117.081 15.4068 118.107 15.2504 119.052 15.2504C121.935 15.2504 122.472 16.3382 121.901 18.8537L121.276 22.2123C119.929 21.6888 118.447 21.4305 116.55 21.4305C110.5 21.4305 106.142 24.5715 104.993 29.6025C103.905 34.3752 106.346 37.3598 111.356 37.3598C114.762 37.3598 117.495 35.9933 119.583 33.4778L118.957 36.5304C118.957 36.5304 118.978 36.5304 119.012 36.5304L119.005 36.5644H125.831L127.32 29.9628H127.313C128.713 23.7284 129.373 19.3364 129.373 19.3364C130.733 13.4216 127.639 9.75024 120.881 9.75024ZM115.299 31.3226C113.131 31.4586 112.322 30.6019 112.641 28.6439C112.961 26.6859 115.007 24.6666 120.426 25.6457L120.29 26.4955C119.827 29.3102 117.944 31.1594 115.299 31.3226Z" fill="white"/>
<path fill-rule="evenodd" clip-rule="evenodd" d="M48.0534 9.61424C45.4834 10.4573 43.8925 12.3609 42.6756 14.6793C43.0223 13.0816 43.3962 11.8782 43.7362 10.3077C43.1855 10.2873 34.0004 10.2873 34.0004 10.2873L32.8854 15.7807H35.7885C34.2927 22.8174 32.8786 29.3849 31.3829 36.4148C31.4169 36.4148 31.4509 36.4148 31.4849 36.4148L31.4781 36.4556L39.1402 36.4624C39.1402 36.4624 41.4178 25.5029 42.2404 21.6616C42.6008 19.9687 43.2671 18.4526 44.6472 17.324C46.1769 16.0798 47.965 15.7671 49.8686 15.8759C50.3853 15.9031 50.9088 15.9574 51.4527 15.9982C51.9286 13.8294 52.4045 11.6946 52.8804 9.51906C51.2216 9.11114 49.6239 9.09754 48.0534 9.61424Z" fill="white"/>
<path fill-rule="evenodd" clip-rule="evenodd" d="M185.333 0.293139C184.191 0.293139 175.169 0.279541 175.169 0.279541L174.102 5.53495H177.039C176.536 7.68335 174.788 15.3727 174.693 15.7262C174.564 15.6379 174.537 15.5767 174.523 15.5087C174.115 13.5167 172.796 12.2181 170.621 11.7354C168.098 11.1779 165.692 11.5518 163.55 12.9116C161.81 14.013 160.579 15.5155 159.641 17.1948C157.479 21.0632 156.615 25.1697 157.023 29.4732C157.159 30.9282 157.594 32.3287 158.58 33.5389C161.272 36.8295 166.827 37.0334 170.016 33.94C170.532 33.4437 170.967 32.8794 171.477 32.3015C171.477 32.3083 171.477 32.3151 171.477 32.3219L170.6 36.6595H177.358L177.44 36.2924C177.453 36.2924 177.467 36.2924 177.467 36.2924C177.467 36.2924 185.156 1.0274 185.333 0.293139ZM170.628 28.8478C170.063 29.9492 169.207 30.8058 167.718 30.9282C166.004 31.0641 164.937 30.2483 164.733 28.7186C164.529 27.1617 164.869 25.6524 165.229 24.1566C165.63 22.525 166.134 20.9137 166.664 19.3092C166.827 18.8129 167.174 18.3505 167.514 17.9222C168.384 16.8344 169.75 16.4129 171.056 16.7732C172.164 17.0792 172.891 18.0922 172.959 19.4043C172.966 19.5947 172.959 19.7919 172.959 19.989C172.586 23.0281 172.055 26.0399 170.628 28.8478Z" fill="white"/>
<path fill-rule="evenodd" clip-rule="evenodd" d="M25.1757 1.13643C23.4624 0.422568 21.6675 0.116623 19.8319 0.109824C16.1198 0.103026 4.70472 0.103027 4.70472 0.103027L3.58972 5.59639H6.58116C6.19363 7.50004 0.190363 35.4088 0.0543889 36.0819L0 36.3334L8.74315 36.3402C8.74315 36.3402 11.2587 24.5512 11.7686 22.3416C13.0331 22.3416 19.0092 22.3416 20.8653 22.0765C24.5026 21.5598 27.358 19.7649 29.2549 16.7055C30.5466 14.6251 31.0022 12.3067 31.0362 9.88638C31.0905 6.01791 28.8742 2.67974 25.1757 1.13643ZM20.7293 15.2914C19.8455 16.5015 18.5605 17.1406 17.024 17.2086C15.5555 17.2698 14.2977 17.2222 12.7612 17.2222C13.577 13.2586 14.5289 9.2949 15.3447 5.29045C16.6093 5.29045 17.4591 5.22926 18.6625 5.30405C20.6545 5.43322 22.0415 6.69099 22.3338 8.77819C22.6669 11.1306 22.1434 13.3469 20.7293 15.2914Z" fill="white"/>
<path fill-rule="evenodd" clip-rule="evenodd" d="M105.768 2.53678C100.703 -0.175909 95.3181 -0.604229 89.7635 0.73512C86.5137 1.51697 83.835 3.20306 82.3461 6.11971C80.5444 9.66864 80.4901 13.1904 83.0668 16.4878C84.3517 18.133 86.065 19.35 87.8327 20.5126C89.5188 21.6276 91.198 22.7494 92.8161 23.9528C94.713 25.3669 94.4206 28.1816 92.9249 29.5957C91.9459 30.5203 90.7221 30.8399 89.4032 30.9826C87.4927 31.1866 85.6571 30.8807 83.835 30.3368C84.3313 28.2291 84.8072 26.1759 85.29 24.1363C82.8764 24.1363 80.5444 24.1227 78.2125 24.1499C78.0697 24.1499 77.8589 24.4083 77.8114 24.5782C77.6278 25.2309 77.4986 25.8972 77.349 26.5567C76.8187 28.8614 76.2884 31.1594 75.7513 33.4778C76.0233 33.6205 76.2613 33.7565 76.5128 33.8789C81.6118 36.2992 86.9964 37.0403 92.5918 36.0885C97.7384 35.2182 102.117 31.982 102.688 26.2983C102.994 23.3137 102.042 20.7234 99.5877 18.7925C97.7044 17.3104 95.5832 16.0934 93.6116 14.7065C92.5714 13.979 91.5244 13.2176 90.6541 12.3269C88.397 9.98818 89.6003 6.45284 92.8637 5.67099C94.611 5.24947 96.3651 5.38544 98.1191 5.69819C98.2959 5.73218 98.3707 5.79337 98.4047 5.88175L97.2693 11.4907H104.503L104.537 11.3411C104.558 11.3411 104.571 11.3411 104.571 11.3343C105.156 8.78481 105.686 6.23528 106.298 3.69256C106.434 3.12147 106.318 2.82913 105.768 2.53678Z" fill="white"/>
<path fill-rule="evenodd" clip-rule="evenodd" d="M151.931 36.6799L144.337 36.6731L144.935 33.7224C144.949 33.6272 144.969 33.5388 144.99 33.4437L145.037 33.1989C144.643 34.3751 137.728 37.5909 134.241 35.4697C132.031 34.1507 130.801 31.5332 131.331 28.9021C132.194 24.5713 133.153 20.2609 134.078 15.937H131.181L132.296 10.4436H138.102V10.4572C139.088 10.4572 140.468 10.4572 142.977 10.4572C142.263 13.7206 139.795 24.9113 139.299 27.3044C139.204 27.7871 139.19 28.3106 139.279 28.7933C139.639 30.7582 142.107 31.4516 143.895 30.1055C145.091 29.2013 145.547 27.9095 145.853 26.5566C147.036 21.3419 148.205 16.1205 149.368 10.9059C149.429 10.6136 149.497 10.4096 149.878 10.4096C152.21 10.4232 154.542 10.4232 156.874 10.43C156.935 10.43 156.989 10.4572 157.139 10.498C156.812 11.9665 151.931 36.6799 151.931 36.6799ZM141.522 8.72352H148.049L155.997 2.10836L147.92 2.10156L141.522 8.72352Z" fill="white"/>
</svg>
